<svg width="347" height="154" viewBox="0 0 347 154" fill="none" xmlns="http://www.w3.org/2000/svg">
<path d="M149.211 72.2812C149.211 75.9609 151.602 78.3047 156.359 79.3594L160.484 80.2734C163.086 80.8594 163.977 81.7031 163.977 83.2031C163.977 85.0547 162.219 86.2266 159.383 86.2266C156.43 86.2266 154.766 85.0078 154.32 82.5938H148.578C149.047 87.3984 152.891 90.4922 159.383 90.4922C165.477 90.4922 169.789 87.3281 169.789 82.6406C169.789 79.0312 167.797 77.0391 162.641 75.8906L158.516 74.9766C155.914 74.3906 154.883 73.4062 154.883 71.9766C154.883 70.1484 156.594 68.9297 159.172 68.9297C161.867 68.9297 163.531 70.3594 163.766 72.6094H169.203C169.062 67.8984 165.219 64.6406 159.172 64.6406C153.172 64.6406 149.211 67.7344 149.211 72.2812ZM189.969 82.5703C189.336 84.6328 187.273 85.9922 184.555 85.9922C180.734 85.9922 178.297 83.3203 178.297 79.3359V78.9844H195.664V77.0859C195.664 69.5391 191.258 64.6406 184.203 64.6406C177.031 64.6406 172.484 69.8203 172.484 77.6719C172.484 85.5938 176.984 90.4922 184.438 90.4922C190.32 90.4922 194.68 87.2578 195.43 82.5703H189.969ZM184.227 69.1641C187.578 69.1641 189.828 71.625 189.945 75.1406H178.344C178.578 71.6719 180.945 69.1641 184.227 69.1641ZM198.992 72.2812C198.992 75.9609 201.383 78.3047 206.141 79.3594L210.266 80.2734C212.867 80.8594 213.758 81.7031 213.758 83.2031C213.758 85.0547 212 86.2266 209.164 86.2266C206.211 86.2266 204.547 85.0078 204.102 82.5938H198.359C198.828 87.3984 202.672 90.4922 209.164 90.4922C215.258 90.4922 219.57 87.3281 219.57 82.6406C219.57 79.0312 217.578 77.0391 212.422 75.8906L208.297 74.9766C205.695 74.3906 204.664 73.4062 204.664 71.9766C204.664 70.1484 206.375 68.9297 208.953 68.9297C211.648 68.9297 213.312 70.3594 213.547 72.6094H218.984C218.844 67.8984 215 64.6406 208.953 64.6406C202.953 64.6406 198.992 67.7344 198.992 72.2812ZM239.75 82.5703C239.117 84.6328 237.055 85.9922 234.336 85.9922C230.516 85.9922 228.078 83.3203 228.078 79.3359V78.9844H245.445V77.0859C245.445 69.5391 241.039 64.6406 233.984 64.6406C226.812 64.6406 222.266 69.8203 222.266 77.6719C222.266 85.5938 226.766 90.4922 234.219 90.4922C240.102 90.4922 244.461 87.2578 245.211 82.5703H239.75ZM234.008 69.1641C237.359 69.1641 239.609 71.625 239.727 75.1406H228.125C228.359 71.6719 230.727 69.1641 234.008 69.1641ZM249.383 90H255.219V75.7266C255.219 72.0703 257.352 69.6328 260.867 69.6328C264.242 69.6328 265.977 71.7188 265.977 75.1875V90H271.812V73.9922C271.812 68.2969 268.602 64.6875 263.117 64.6875C259.344 64.6875 256.602 66.3984 255.266 69.4219H255.148V56.1797H249.383V90ZM283.812 90.3984C287 90.3984 290.117 88.7344 291.547 86.0391H291.664V90H297.289V72.8906C297.289 67.8984 293.281 64.6406 287.117 64.6406C280.789 64.6406 276.828 67.9688 276.57 72.6094H281.984C282.359 70.5469 284.117 69.2109 286.883 69.2109C289.766 69.2109 291.523 70.7109 291.523 73.3125V75.0938L284.961 75.4688C278.914 75.8438 275.516 78.4922 275.516 82.8984C275.516 87.375 279.008 90.3984 283.812 90.3984ZM285.57 85.9922C283.039 85.9922 281.352 84.7031 281.352 82.6641C281.352 80.6953 282.969 79.4297 285.781 79.2422L291.523 78.8906V80.7891C291.523 83.7891 288.875 85.9922 285.57 85.9922ZM303.617 59.3438V65.1562H300.055V69.6562H303.617V83.3906C303.617 88.2188 305.727 90.1172 311.094 90.1172C312.336 90.1172 313.484 90.0234 314.117 89.8828V85.4297C313.742 85.5 312.992 85.5469 312.453 85.5469C310.391 85.5469 309.453 84.6094 309.453 82.5703V69.6562H314.141V65.1562H309.453V59.3438H303.617Z" fill="url(#paint0_linear)"/>
<mask id="mask0" mask-type="alpha" maskUnits="userSpaceOnUse" x="20" y="32" width="91" height="91">
<path fill-rule="evenodd" clip-rule="evenodd" d="M20 32H111V123H20V32ZM78 85H91V96H78V85ZM53 59H41V70H53V59ZM47 92H60V102H47V92ZM84 53H71V63H84V53Z" fill="#C4C4C4"/>
</mask>
<g mask="url(#mask0)">
<rect x="45.5" y="33.5" width="40" height="88" rx="20" stroke="#8B4E6D" stroke-width="3"/>
<rect x="21.5" y="97.5" width="40" height="88" rx="20" transform="rotate(-90 21.5 97.5)" stroke="#541E38" stroke-width="3"/>
</g>
<defs>
<linearGradient id="paint0_linear" x1="173.456" y1="84.5" x2="302.235" y2="81.0684" gradientUnits="userSpaceOnUse">
<stop offset="0.315246" stop-color="#541E38"/>
<stop offset="0.651042" stop-color="#8B4E6D"/>
</linearGradient>
</defs>
</svg>
