<svg width="100" height="100" viewBox="0 0 100 100" fill="none" xmlns="http://www.w3.org/2000/svg">
<path d="M50.0002 8.3335C27.0252 8.3335 8.3335 27.0252 8.3335 50.0002C8.3335 72.9752 27.0252 91.6668 50.0002 91.6668C72.9752 91.6668 91.6668 72.9752 91.6668 50.0002C91.6668 27.0252 72.9752 8.3335 50.0002 8.3335ZM50.0002 83.3335C31.621 83.3335 16.6668 68.3793 16.6668 50.0002C16.6668 31.621 31.621 16.6668 50.0002 16.6668C68.3793 16.6668 83.3335 31.621 83.3335 50.0002C83.3335 68.3793 68.3793 83.3335 50.0002 83.3335Z" fill="#8B4E6D"/>
<path d="M61.7833 61.7826C59.4834 64.0886 56.5566 65.6679 53.3666 66.3243C51.1443 66.7701 48.8556 66.7701 46.6333 66.3243C45.5645 66.1024 44.5195 65.7787 43.5124 65.3576C42.5239 64.9353 41.5767 64.422 40.6833 63.8243C38.9118 62.6166 37.3826 61.0873 36.1749 59.3159L29.2666 63.9701C30.1624 65.2993 31.1916 66.5493 32.3208 67.6743C34.6392 70.0006 37.3938 71.8465 40.4269 73.1063C43.46 74.3661 46.7118 75.015 49.9961 75.0157C53.2804 75.0165 56.5326 74.3692 59.5663 73.1108C62.5999 71.8524 65.3555 70.0078 67.6749 67.6826C68.8083 66.5534 69.8416 65.3034 70.7333 63.9701L63.8249 59.3159C63.2291 60.1951 62.5458 61.0243 61.7833 61.7826Z" fill="#8B4E6D"/>
<path d="M35.4165 50C38.8683 50 41.6665 47.2018 41.6665 43.75C41.6665 40.2982 38.8683 37.5 35.4165 37.5C31.9647 37.5 29.1665 40.2982 29.1665 43.75C29.1665 47.2018 31.9647 50 35.4165 50Z" fill="#8B4E6D"/>
<path d="M64.5832 41.6665C56.2498 41.6665 54.1665 49.9998 54.1665 49.9998H74.9998C74.9998 49.9998 72.9123 41.6665 64.5832 41.6665Z" fill="#8B4E6D"/>
</svg>
